# xmcd
#
# Track frame offsets:
#	150
#	12287
#	28344
#	43386
#	58030
#	72725
#	87426
#	101859
#	115134
#	128075
#	141763
#	155603
#	168494
#	183580
#	198276
#	213071
#	226355
#	241082
#	254488
#	267739
#	280105
#	292951
#
# Disc length: 4072 seconds
#
# Revision: 0
# Processed by: cddbd v1.5.1PL2 Copyright (c) Steve Scherf et al.
# Submitted via: dBpowerAMP V4.0
#
DISCID=530fe616
DTITLE=Lucille Hegamin - Vol 4, Alternative Takes and Remaining Titles (1920-1926)
DYEAR=1900
DGENRE=Blues
TTITLE0=The Jazz Me Blues (Take 1)
TTITLE1=I'll Be Good But I'll Be Lonesome (Take 2)
TTITLE2=I've Got The Wonder Where He Want (Take 2)
TTITLE3=I've Got The Wonder Where He Want (Take 3)
TTITLE4=He May Be Your Man (But He Comes To See Me) (Take 1)
TTITLE5=State Street Blues (Take 1)
TTITLE6=State Street Blues (Take 3)
TTITLE7=High Brouwn Blues (Take 1)
TTITLE8=High Brouwn Blues (Take 3)
TTITLE9=I've Got To Cool My Puppies Now (Take 2)
TTITLE10=Send Back My Honey Man (Take 1)
TTITLE11=Send Back My Honey Man (Take 2)
TTITLE12=You Can Have Him I Don't Want Him Blues
TTITLE13=You-Doo Blues
TTITLE14=Papa Papa (I Don't Want To Be Your Mama No More) (Take B)
TTITLE15=Now You've Got Him Can You Hold Him (Take B)
TTITLE16=Arkansas Blues (Take 2)
TTITLE17=Jazz Me Blues (485-2)
TTITLE18=Alabamy Bound (Take A)
TTITLE19=Every Time I Pick A Sweetie (Take B)
TTITLE20=No Man's Mama (Take A)
TTITLE21=Dinah (Take A)
EXTD=
EXTT0=
EXTT1=
EXTT2=
EXTT3=
EXTT4=
EXTT5=
EXTT6=
EXTT7=
EXTT8=
EXTT9=
EXTT10=
EXTT11=
EXTT12=
EXTT13=
EXTT14=
EXTT15=
EXTT16=
EXTT17=
EXTT18=
EXTT19=
EXTT20=
EXTT21=
PLAYORDER=
